<svg width="0" height="0"><symbol xmlns="http://www.w3.org/2000/svg" id="0dc15b37" fill="none" viewBox="0 0 100 108"><circle cx="25" cy="62" r="25" fill="#000"/><circle cx="75" cy="62" r="25" fill="#000"/><circle cx="50" cy="25" r="25" fill="#000"/><path fill="#000" d="M44 40H56V108H44z"/></symbol><symbol xmlns="http://www.w3.org/2000/svg" id="0e1ce1aa" fill="none" viewBox="0 0 114 114"><path fill="red" d="M0 56.5685H80V136.5685H0z" transform="rotate(-45 0 56.569)"/></symbol><symbol xmlns="http://www.w3.org/2000/svg" id="d1f542dc" fill="none" viewBox="0 0 101 103"><circle cx="76" cy="25" r="25" fill="red" transform="rotate(180 76 25)"/><path fill="red" d="M0 25C0 11.1929 11.1929 -3.8147e-06 25 -3.8147e-06C38.8071 -3.8147e-06 50 11.1929 50 25C50 38.8071 38.8071 50 25 50C11.1929 50 0 38.8071 0 25Z"/><path fill="red" d="M50.5 99.5L97 37.9291L53.5 14L50.5 18.5L47.5 14L4 37.9291L50.5 99.5Z"/></symbol><symbol xmlns="http://www.w3.org/2000/svg" id="a88c3d68" fill="none" viewBox="0 0 114 114"><path fill="#F3ADCF" d="M.500031.499969H112.63703100000001V112.636969H.500031z"/><path stroke="#000" d="M.500031.499969H112.63703100000001V112.636969H.500031z"/><g filter="url(#filter0_d_13_7)"><rect width="80" height="80" x="3.05176e-05" y="56.5685" fill="#fff" rx="25" transform="rotate(-45 0 56.569)"/></g><defs><filter id="filter0_d_13_7" width="100.426" height="100.426" x="6.35538" y="10.3553" color-interpolation-filters="sRGB" filterUnits="userSpaceOnUse"><feFlood flood-opacity="0" result="BackgroundImageFix"/><feColorMatrix in="SourceAlpha" result="hardAlpha" values="0 0 0 0 0 0 0 0 0 0 0 0 0 0 0 0 0 0 127 0"/><feColorMatrix values="0 0 0 0 0 0 0 0 0 0 0 0 0 0 0 0 0 0 0.25 0"/><feOffset dy="4"/><feGaussianBlur stdDeviation="2"/><feComposite in2="hardAlpha" operator="out"/><feBlend in2="BackgroundImageFix" result="effect1_dropShadow_13_7"/><feBlend in="SourceGraphic" in2="effect1_dropShadow_13_7" result="shape"/></filter></defs></symbol><symbol xmlns="http://www.w3.org/2000/svg" id="3c28ac9e" fill="none" viewBox="0 0 50 108"><ellipse cx="25" cy="43.5" fill="#000" rx="25" ry="43.5"/><path fill="#000" d="M19 40H31V108H19z"/></symbol></svg>